# 3ds Max Wavefront OBJ Exporter v0.97b - (c)2007 guruware
# File Created: 18.06.2018 21:17:04

mtllib ?.mtl

#
# object Plane001
#

v  -302.0022 0.0000 150.2102
v  -302.0022 0.0000 297.9602
v  -154.2522 0.0000 297.9602
v  -154.2522 0.0000 150.2102
v  -6.5022 0.0000 297.9602
v  -6.5022 0.0000 150.2102
v  141.2478 0.0000 297.9602
v  141.2478 0.0000 150.2102
v  288.9978 0.0000 297.9602
v  288.9978 0.0000 150.2102
v  -302.0022 0.0000 2.4602
v  -154.2522 0.0000 2.4602
v  -6.5022 0.0000 2.4602
v  141.2478 0.0000 2.4602
v  288.9978 0.0000 2.4602
v  -302.0022 0.0000 -145.2898
v  -154.2522 0.0000 -145.2898
v  -6.5022 0.0000 -145.2898
v  141.2478 0.0000 -145.2898
v  288.9978 0.0000 -145.2898
v  -302.0022 0.0000 -293.0398
v  -154.2522 0.0000 -293.0398
v  -6.5022 0.0000 -293.0398
v  141.2478 0.0000 -293.0398
v  288.9978 0.0000 -293.0398
# 25 vertices

vn 0.0000 1.0000 -0.0000
# 1 vertex normals

vt 0.0000 0.2500 0.0000
vt 0.0000 0.0000 0.0000
vt 0.2500 0.0000 0.0000
vt 0.2500 0.2500 0.0000
vt 0.5000 0.0000 0.0000
vt 0.5000 0.2500 0.0000
vt 0.7500 0.0000 0.0000
vt 0.7500 0.2500 0.0000
vt 1.0000 0.0000 0.0000
vt 1.0000 0.2500 0.0000
vt 0.0000 0.5000 0.0000
vt 0.2500 0.5000 0.0000
vt 0.5000 0.5000 0.0000
vt 0.7500 0.5000 0.0000
vt 1.0000 0.5000 0.0000
vt 0.0000 0.7500 0.0000
vt 0.2500 0.7500 0.0000
vt 0.5000 0.7500 0.0000
vt 0.7500 0.7500 0.0000
vt 1.0000 0.7500 0.0000
vt 0.0000 1.0000 0.0000
vt 0.2500 1.0000 0.0000
vt 0.5000 1.0000 0.0000
vt 0.7500 1.0000 0.0000
vt 1.0000 1.0000 0.0000
# 25 texture coords

o Plane001
g Plane001
usemtl ?
s 1
f 1/1/1 2/2/1 3/3/1 4/4/1 
f 4/4/1 3/3/1 5/5/1 6/6/1 
f 6/6/1 5/5/1 7/7/1 8/8/1 
f 8/8/1 7/7/1 9/9/1 10/10/1 
f 11/11/1 1/1/1 4/4/1 12/12/1 
f 12/12/1 4/4/1 6/6/1 13/13/1 
f 13/13/1 6/6/1 8/8/1 14/14/1 
f 14/14/1 8/8/1 10/10/1 15/15/1 
f 16/16/1 11/11/1 12/12/1 17/17/1 
f 17/17/1 12/12/1 13/13/1 18/18/1 
f 18/18/1 13/13/1 14/14/1 19/19/1 
f 19/19/1 14/14/1 15/15/1 20/20/1 
f 21/21/1 16/16/1 17/17/1 22/22/1 
f 22/22/1 17/17/1 18/18/1 23/23/1 
f 23/23/1 18/18/1 19/19/1 24/24/1 
f 24/24/1 19/19/1 20/20/1 25/25/1 
# 16 polygons

